<?xml version="1.0" encoding="UTF-8" standalone="no"?>
<!DOCTYPE svg PUBLIC "-//W3C//DTD SVG 1.1//EN"
 "http://www.w3.org/Graphics/SVG/1.1/DTD/svg11.dtd">
<!-- Generated by graphviz version 2.40.1 (20161225.0304)
 -->
<!-- Title: bank_accounts Pages: 1 -->
<svg width="563pt" height="622pt"
 viewBox="0.00 0.00 563.00 622.00" xmlns="http://www.w3.org/2000/svg" xmlns:xlink="http://www.w3.org/1999/xlink">
<g id="graph0" class="graph" transform="scale(1 1) rotate(0) translate(4 618)">
<title>bank_accounts</title>
<polygon fill="#ffffff" stroke="transparent" points="-4,4 -4,-618 559,-618 559,4 -4,4"/>
<!-- bank_accounts -->
<g id="node1" class="node">
<title>bank_accounts</title>
<polygon fill="#efefef" stroke="transparent" points="46,-532.5 46,-567.5 308,-567.5 308,-532.5 46,-532.5"/>
<polygon fill="none" stroke="#000000" points="46,-532.5 46,-567.5 308,-567.5 308,-532.5 46,-532.5"/>
<text text-anchor="start" x="52.6901" y="-545.3" font-family="Arial Bold" font-size="18.00" fill="#000000">bank_accounts</text>
<text text-anchor="start" x="173.7419" y="-545.3" font-family="Arial" font-size="14.00" fill="#000000">    </text>
<text text-anchor="start" x="207.9467" y="-545.3" font-family="Arial" font-size="14.00" fill="#666666">[BASE TABLE]</text>
<polygon fill="none" stroke="#000000" points="46,-502.5 46,-532.5 308,-532.5 308,-502.5 46,-502.5"/>
<text text-anchor="start" x="53" y="-513.9" font-family="Arial" font-size="14.00" fill="#000000">id </text>
<text text-anchor="start" x="67.7798" y="-513.9" font-family="Arial" font-size="14.00" fill="#666666">[bigint]</text>
<polygon fill="none" stroke="#000000" points="46,-472.5 46,-502.5 308,-502.5 308,-472.5 46,-472.5"/>
<text text-anchor="start" x="53" y="-483.9" font-family="Arial" font-size="14.00" fill="#000000">client_id </text>
<text text-anchor="start" x="108.2314" y="-483.9" font-family="Arial" font-size="14.00" fill="#666666">[bigint]</text>
<polygon fill="none" stroke="#000000" points="46,-442.5 46,-472.5 308,-472.5 308,-442.5 46,-442.5"/>
<text text-anchor="start" x="53" y="-453.9" font-family="Arial" font-size="14.00" fill="#000000">bank_name </text>
<text text-anchor="start" x="130.0294" y="-453.9" font-family="Arial" font-size="14.00" fill="#666666">[varchar(255)]</text>
<polygon fill="none" stroke="#000000" points="46,-412.5 46,-442.5 308,-442.5 308,-412.5 46,-412.5"/>
<text text-anchor="start" x="53" y="-423.9" font-family="Arial" font-size="14.00" fill="#000000">branch </text>
<text text-anchor="start" x="99.6816" y="-423.9" font-family="Arial" font-size="14.00" fill="#666666">[varchar(255)]</text>
<polygon fill="none" stroke="#000000" points="46,-382.5 46,-412.5 308,-412.5 308,-382.5 46,-382.5"/>
<text text-anchor="start" x="53" y="-393.9" font-family="Arial" font-size="14.00" fill="#000000">account_no </text>
<text text-anchor="start" x="129.2594" y="-393.9" font-family="Arial" font-size="14.00" fill="#666666">[varchar(255)]</text>
<polygon fill="none" stroke="#000000" points="46,-352.5 46,-382.5 308,-382.5 308,-352.5 46,-352.5"/>
<text text-anchor="start" x="53" y="-363.9" font-family="Arial" font-size="14.00" fill="#000000">holder </text>
<text text-anchor="start" x="95.7882" y="-363.9" font-family="Arial" font-size="14.00" fill="#666666">[varchar(255)]</text>
<polygon fill="none" stroke="#000000" stroke-width="3" points="44.5,-351.5 44.5,-569.5 309.5,-569.5 309.5,-351.5 44.5,-351.5"/>
</g>
<!-- clients -->
<g id="node2" class="node">
<title>clients</title>
<polygon fill="#efefef" stroke="transparent" points="81,-192.5 81,-227.5 273,-227.5 273,-192.5 81,-192.5"/>
<polygon fill="none" stroke="#000000" points="81,-192.5 81,-227.5 273,-227.5 273,-192.5 81,-192.5"/>
<text text-anchor="start" x="87.7145" y="-205.3" font-family="Arial Bold" font-size="18.00" fill="#000000">clients</text>
<text text-anchor="start" x="138.7175" y="-205.3" font-family="Arial" font-size="14.00" fill="#000000">    </text>
<text text-anchor="start" x="172.9223" y="-205.3" font-family="Arial" font-size="14.00" fill="#666666">[BASE TABLE]</text>
<polygon fill="none" stroke="#000000" points="81,-162.5 81,-192.5 273,-192.5 273,-162.5 81,-162.5"/>
<text text-anchor="start" x="88" y="-173.9" font-family="Arial" font-size="14.00" fill="#000000">id    </text>
<text text-anchor="start" x="133.094" y="-173.9" font-family="Arial" font-size="14.00" fill="#666666">[bigint]</text>
<polygon fill="none" stroke="#000000" points="81,-132.5 81,-162.5 273,-162.5 273,-132.5 81,-132.5"/>
<text text-anchor="start" x="88" y="-143.9" font-family="Arial" font-size="14.00" fill="#000000">company_id    </text>
<text text-anchor="start" x="197.6676" y="-143.9" font-family="Arial" font-size="14.00" fill="#666666">[bigint]</text>
<polygon fill="none" stroke="#000000" points="81,-102.5 81,-132.5 273,-132.5 273,-102.5 81,-102.5"/>
<text text-anchor="start" x="88" y="-113.9" font-family="Arial" font-size="14.00" fill="#000000">name    </text>
<text text-anchor="start" x="157.2132" y="-113.9" font-family="Arial" font-size="14.00" fill="#666666">[varchar(255)]</text>
<polygon fill="none" stroke="#000000" points="81,-72.5 81,-102.5 273,-102.5 273,-72.5 81,-72.5"/>
<text text-anchor="start" x="88" y="-83.9" font-family="Arial" font-size="14.00" fill="#000000">phone    </text>
<text text-anchor="start" x="161.1178" y="-83.9" font-family="Arial" font-size="14.00" fill="#666666">[varchar(20)]</text>
<polygon fill="none" stroke="#000000" points="81,-42.5 81,-72.5 273,-72.5 273,-42.5 81,-42.5"/>
<text text-anchor="start" x="88" y="-53.9" font-family="Arial" font-size="14.00" fill="#000000">address    </text>
<text text-anchor="start" x="171.9958" y="-53.9" font-family="Arial" font-size="14.00" fill="#666666">[text]</text>
</g>
<!-- bank_accounts&#45;&gt;clients -->
<g id="edge1" class="edge">
<title>bank_accounts:client_id&#45;&gt;clients:id</title>
<path fill="none" stroke="#000000" d="M317.7635,-485.183C373.6834,-456.815 338.8061,-177.5 273,-177.5"/>
<polygon fill="#000000" stroke="#000000" points="317.7298,-485.1909 306.9609,-483.1216 312.8649,-486.3455 308,-487.5 308,-487.5 308,-487.5 312.8649,-486.3455 309.0391,-491.8784 317.7298,-485.1909 317.7298,-485.1909"/>
<text text-anchor="start" x="315.057" y="-497.5" font-family="Arial" font-size="10.00" fill="#000000">FOREIGN KEY (client_id) REFERENCES clients (id)</text>
</g>
</g>
</svg>
