<?xml version="1.0" encoding="UTF-8" standalone="no"?>
<!DOCTYPE svg PUBLIC "-//W3C//DTD SVG 1.1//EN"
 "http://www.w3.org/Graphics/SVG/1.1/DTD/svg11.dtd">
<!-- Generated by graphviz version 2.40.1 (20161225.0304)
 -->
<!-- Title: clients Pages: 1 -->
<svg width="742pt" height="1049pt"
 viewBox="0.00 0.00 742.00 1049.00" xmlns="http://www.w3.org/2000/svg" xmlns:xlink="http://www.w3.org/1999/xlink">
<g id="graph0" class="graph" transform="scale(1 1) rotate(0) translate(4 1045)">
<title>clients</title>
<polygon fill="#ffffff" stroke="transparent" points="-4,4 -4,-1045 738,-1045 738,4 -4,4"/>
<!-- clients -->
<g id="node1" class="node">
<title>clients</title>
<polygon fill="#efefef" stroke="transparent" points="257,-502.5 257,-537.5 449,-537.5 449,-502.5 257,-502.5"/>
<polygon fill="none" stroke="#000000" points="257,-502.5 257,-537.5 449,-537.5 449,-502.5 257,-502.5"/>
<text text-anchor="start" x="263.7145" y="-515.3" font-family="Arial Bold" font-size="18.00" fill="#000000">clients</text>
<text text-anchor="start" x="314.7175" y="-515.3" font-family="Arial" font-size="14.00" fill="#000000">    </text>
<text text-anchor="start" x="348.9223" y="-515.3" font-family="Arial" font-size="14.00" fill="#666666">[BASE TABLE]</text>
<polygon fill="none" stroke="#000000" points="257,-472.5 257,-502.5 449,-502.5 449,-472.5 257,-472.5"/>
<text text-anchor="start" x="264" y="-483.9" font-family="Arial" font-size="14.00" fill="#000000">id </text>
<text text-anchor="start" x="278.7798" y="-483.9" font-family="Arial" font-size="14.00" fill="#666666">[bigint]</text>
<polygon fill="none" stroke="#000000" points="257,-442.5 257,-472.5 449,-472.5 449,-442.5 257,-442.5"/>
<text text-anchor="start" x="264" y="-453.9" font-family="Arial" font-size="14.00" fill="#000000">company_id </text>
<text text-anchor="start" x="343.3534" y="-453.9" font-family="Arial" font-size="14.00" fill="#666666">[bigint]</text>
<polygon fill="none" stroke="#000000" points="257,-412.5 257,-442.5 449,-442.5 449,-412.5 257,-412.5"/>
<text text-anchor="start" x="264" y="-423.9" font-family="Arial" font-size="14.00" fill="#000000">name </text>
<text text-anchor="start" x="302.899" y="-423.9" font-family="Arial" font-size="14.00" fill="#666666">[varchar(255)]</text>
<polygon fill="none" stroke="#000000" points="257,-382.5 257,-412.5 449,-412.5 449,-382.5 257,-382.5"/>
<text text-anchor="start" x="264" y="-393.9" font-family="Arial" font-size="14.00" fill="#000000">phone </text>
<text text-anchor="start" x="306.8036" y="-393.9" font-family="Arial" font-size="14.00" fill="#666666">[varchar(20)]</text>
<polygon fill="none" stroke="#000000" points="257,-352.5 257,-382.5 449,-382.5 449,-352.5 257,-352.5"/>
<text text-anchor="start" x="264" y="-363.9" font-family="Arial" font-size="14.00" fill="#000000">address </text>
<text text-anchor="start" x="317.6816" y="-363.9" font-family="Arial" font-size="14.00" fill="#666666">[text]</text>
<polygon fill="none" stroke="#000000" stroke-width="3" points="255.5,-351.5 255.5,-539.5 450.5,-539.5 450.5,-351.5 255.5,-351.5"/>
</g>
<!-- companies -->
<g id="node4" class="node">
<title>companies</title>
<polygon fill="#efefef" stroke="transparent" points="239,-192.5 239,-227.5 467,-227.5 467,-192.5 239,-192.5"/>
<polygon fill="none" stroke="#000000" points="239,-192.5 239,-227.5 467,-227.5 467,-192.5 239,-192.5"/>
<text text-anchor="start" x="245.7073" y="-205.3" font-family="Arial Bold" font-size="18.00" fill="#000000">companies</text>
<text text-anchor="start" x="332.7247" y="-205.3" font-family="Arial" font-size="14.00" fill="#000000">    </text>
<text text-anchor="start" x="366.9295" y="-205.3" font-family="Arial" font-size="14.00" fill="#666666">[BASE TABLE]</text>
<polygon fill="none" stroke="#000000" points="239,-162.5 239,-192.5 467,-192.5 467,-162.5 239,-162.5"/>
<text text-anchor="start" x="246" y="-173.9" font-family="Arial" font-size="14.00" fill="#000000">id    </text>
<text text-anchor="start" x="291.094" y="-173.9" font-family="Arial" font-size="14.00" fill="#666666">[bigint]</text>
<polygon fill="none" stroke="#000000" points="239,-132.5 239,-162.5 467,-162.5 467,-132.5 239,-132.5"/>
<text text-anchor="start" x="246" y="-143.9" font-family="Arial" font-size="14.00" fill="#000000">name    </text>
<text text-anchor="start" x="315.2132" y="-143.9" font-family="Arial" font-size="14.00" fill="#666666">[varchar(255)]</text>
<polygon fill="none" stroke="#000000" points="239,-102.5 239,-132.5 467,-132.5 467,-102.5 239,-102.5"/>
<text text-anchor="start" x="246" y="-113.9" font-family="Arial" font-size="14.00" fill="#000000">owner_name    </text>
<text text-anchor="start" x="361.1108" y="-113.9" font-family="Arial" font-size="14.00" fill="#666666">[varchar(255)]</text>
<polygon fill="none" stroke="#000000" points="239,-72.5 239,-102.5 467,-102.5 467,-72.5 239,-72.5"/>
<text text-anchor="start" x="246" y="-83.9" font-family="Arial" font-size="14.00" fill="#000000">phone    </text>
<text text-anchor="start" x="319.1178" y="-83.9" font-family="Arial" font-size="14.00" fill="#666666">[varchar(20)]</text>
<polygon fill="none" stroke="#000000" points="239,-42.5 239,-72.5 467,-72.5 467,-42.5 239,-42.5"/>
<text text-anchor="start" x="246" y="-53.9" font-family="Arial" font-size="14.00" fill="#000000">address    </text>
<text text-anchor="start" x="329.9958" y="-53.9" font-family="Arial" font-size="14.00" fill="#666666">[text]</text>
</g>
<!-- clients&#45;&gt;companies -->
<g id="edge3" class="edge">
<title>clients:company_id&#45;&gt;companies:id</title>
<path fill="none" stroke="#000000" d="M458.9893,-456.8834C574.579,-442.3969 588.2915,-177.5 467,-177.5"/>
<polygon fill="#000000" stroke="#000000" points="458.981,-456.8838 448.7227,-453.0085 453.9905,-457.1919 449,-457.5 449,-457.5 449,-457.5 453.9905,-457.1919 449.2773,-461.9915 458.981,-456.8838 458.981,-456.8838"/>
<text text-anchor="start" x="456.438" y="-467.5" font-family="Arial" font-size="10.00" fill="#000000">FOREIGN KEY (company_id) REFERENCES companies (id)</text>
</g>
<!-- bank_accounts -->
<g id="node2" class="node">
<title>bank_accounts</title>
<polygon fill="#efefef" stroke="transparent" points="43,-902.5 43,-937.5 305,-937.5 305,-902.5 43,-902.5"/>
<polygon fill="none" stroke="#000000" points="43,-902.5 43,-937.5 305,-937.5 305,-902.5 43,-902.5"/>
<text text-anchor="start" x="49.6901" y="-915.3" font-family="Arial Bold" font-size="18.00" fill="#000000">bank_accounts</text>
<text text-anchor="start" x="170.7419" y="-915.3" font-family="Arial" font-size="14.00" fill="#000000">    </text>
<text text-anchor="start" x="204.9467" y="-915.3" font-family="Arial" font-size="14.00" fill="#666666">[BASE TABLE]</text>
<polygon fill="none" stroke="#000000" points="43,-872.5 43,-902.5 305,-902.5 305,-872.5 43,-872.5"/>
<text text-anchor="start" x="50" y="-883.9" font-family="Arial" font-size="14.00" fill="#000000">id    </text>
<text text-anchor="start" x="95.094" y="-883.9" font-family="Arial" font-size="14.00" fill="#666666">[bigint]</text>
<polygon fill="none" stroke="#000000" points="43,-842.5 43,-872.5 305,-872.5 305,-842.5 43,-842.5"/>
<text text-anchor="start" x="50" y="-853.9" font-family="Arial" font-size="14.00" fill="#000000">client_id    </text>
<text text-anchor="start" x="135.5456" y="-853.9" font-family="Arial" font-size="14.00" fill="#666666">[bigint]</text>
<polygon fill="none" stroke="#000000" points="43,-812.5 43,-842.5 305,-842.5 305,-812.5 43,-812.5"/>
<text text-anchor="start" x="50" y="-823.9" font-family="Arial" font-size="14.00" fill="#000000">bank_name    </text>
<text text-anchor="start" x="157.3436" y="-823.9" font-family="Arial" font-size="14.00" fill="#666666">[varchar(255)]</text>
<polygon fill="none" stroke="#000000" points="43,-782.5 43,-812.5 305,-812.5 305,-782.5 43,-782.5"/>
<text text-anchor="start" x="50" y="-793.9" font-family="Arial" font-size="14.00" fill="#000000">branch    </text>
<text text-anchor="start" x="126.9958" y="-793.9" font-family="Arial" font-size="14.00" fill="#666666">[varchar(255)]</text>
<polygon fill="none" stroke="#000000" points="43,-752.5 43,-782.5 305,-782.5 305,-752.5 43,-752.5"/>
<text text-anchor="start" x="50" y="-763.9" font-family="Arial" font-size="14.00" fill="#000000">account_no    </text>
<text text-anchor="start" x="156.5736" y="-763.9" font-family="Arial" font-size="14.00" fill="#666666">[varchar(255)]</text>
<polygon fill="none" stroke="#000000" points="43,-722.5 43,-752.5 305,-752.5 305,-722.5 43,-722.5"/>
<text text-anchor="start" x="50" y="-733.9" font-family="Arial" font-size="14.00" fill="#000000">holder    </text>
<text text-anchor="start" x="123.1024" y="-733.9" font-family="Arial" font-size="14.00" fill="#666666">[varchar(255)]</text>
</g>
<!-- bank_accounts&#45;&gt;clients -->
<g id="edge1" class="edge">
<title>bank_accounts:client_id&#45;&gt;clients:id</title>
<path fill="none" stroke="#000000" d="M315.192,-856.8489C378.286,-848.11 322.2753,-753.1795 305,-680 294.0401,-633.5733 267.9599,-630.4267 257,-584 247.1462,-542.2584 214.1111,-487.5 257,-487.5"/>
<polygon fill="#000000" stroke="#000000" points="314.9797,-856.8624 304.7131,-853.0092 309.9898,-857.1812 305,-857.5 305,-857.5 305,-857.5 309.9898,-857.1812 305.2869,-861.9908 314.9797,-856.8624 314.9797,-856.8624"/>
<text text-anchor="start" x="126.807" y="-841.5" font-family="Arial" font-size="10.00" fill="#000000">FOREIGN KEY (client_id) REFERENCES clients (id)</text>
</g>
<!-- invoices -->
<g id="node3" class="node">
<title>invoices</title>
<polygon fill="#efefef" stroke="transparent" points="409,-962.5 409,-997.5 657,-997.5 657,-962.5 409,-962.5"/>
<polygon fill="none" stroke="#000000" points="409,-962.5 409,-997.5 657,-997.5 657,-962.5 409,-962.5"/>
<text text-anchor="start" x="436.7125" y="-975.3" font-family="Arial Bold" font-size="18.00" fill="#000000">invoices</text>
<text text-anchor="start" x="501.7195" y="-975.3" font-family="Arial" font-size="14.00" fill="#000000">    </text>
<text text-anchor="start" x="535.9243" y="-975.3" font-family="Arial" font-size="14.00" fill="#666666">[BASE TABLE]</text>
<polygon fill="none" stroke="#000000" points="409,-932.5 409,-962.5 657,-962.5 657,-932.5 409,-932.5"/>
<text text-anchor="start" x="416" y="-943.9" font-family="Arial" font-size="14.00" fill="#000000">id    </text>
<text text-anchor="start" x="461.094" y="-943.9" font-family="Arial" font-size="14.00" fill="#666666">[bigint]</text>
<polygon fill="none" stroke="#000000" points="409,-902.5 409,-932.5 657,-932.5 657,-902.5 409,-902.5"/>
<text text-anchor="start" x="416" y="-913.9" font-family="Arial" font-size="14.00" fill="#000000">company_id    </text>
<text text-anchor="start" x="525.6676" y="-913.9" font-family="Arial" font-size="14.00" fill="#666666">[bigint]</text>
<polygon fill="none" stroke="#000000" points="409,-872.5 409,-902.5 657,-902.5 657,-872.5 409,-872.5"/>
<text text-anchor="start" x="416" y="-883.9" font-family="Arial" font-size="14.00" fill="#000000">client_id    </text>
<text text-anchor="start" x="501.5456" y="-883.9" font-family="Arial" font-size="14.00" fill="#666666">[bigint]</text>
<polygon fill="none" stroke="#000000" points="409,-842.5 409,-872.5 657,-872.5 657,-842.5 409,-842.5"/>
<text text-anchor="start" x="416" y="-853.9" font-family="Arial" font-size="14.00" fill="#000000">issue_date    </text>
<text text-anchor="start" x="517.8976" y="-853.9" font-family="Arial" font-size="14.00" fill="#666666">[date]</text>
<polygon fill="none" stroke="#000000" points="409,-812.5 409,-842.5 657,-842.5 657,-812.5 409,-812.5"/>
<text text-anchor="start" x="416" y="-823.9" font-family="Arial" font-size="14.00" fill="#000000">due_date    </text>
<text text-anchor="start" x="508.5736" y="-823.9" font-family="Arial" font-size="14.00" fill="#666666">[date]</text>
<polygon fill="none" stroke="#000000" points="409,-782.5 409,-812.5 657,-812.5 657,-782.5 409,-782.5"/>
<text text-anchor="start" x="415.5435" y="-793.9" font-family="Arial" font-size="14.00" fill="#000000">payment_amount    </text>
<text text-anchor="start" x="557.8941" y="-793.9" font-family="Arial" font-size="14.00" fill="#666666">[decimal(15,2)]</text>
<polygon fill="none" stroke="#000000" points="409,-752.5 409,-782.5 657,-782.5 657,-752.5 409,-752.5"/>
<text text-anchor="start" x="416" y="-763.9" font-family="Arial" font-size="14.00" fill="#000000">fee_amount    </text>
<text text-anchor="start" x="524.1248" y="-763.9" font-family="Arial" font-size="14.00" fill="#666666">[decimal(15,2)]</text>
<polygon fill="none" stroke="#000000" points="409,-722.5 409,-752.5 657,-752.5 657,-722.5 409,-722.5"/>
<text text-anchor="start" x="416" y="-733.9" font-family="Arial" font-size="14.00" fill="#000000">tax_amount    </text>
<text text-anchor="start" x="523.3422" y="-733.9" font-family="Arial" font-size="14.00" fill="#666666">[decimal(15,2)]</text>
<polygon fill="none" stroke="#000000" points="409,-692.5 409,-722.5 657,-722.5 657,-692.5 409,-692.5"/>
<text text-anchor="start" x="416" y="-703.9" font-family="Arial" font-size="14.00" fill="#000000">total_amount    </text>
<text text-anchor="start" x="531.122" y="-703.9" font-family="Arial" font-size="14.00" fill="#666666">[decimal(15,2)]</text>
<polygon fill="none" stroke="#000000" points="409,-662.5 409,-692.5 657,-692.5 657,-662.5 409,-662.5"/>
<text text-anchor="start" x="416" y="-673.9" font-family="Arial" font-size="14.00" fill="#000000">status    </text>
<text text-anchor="start" x="487.5512" y="-673.9" font-family="Arial" font-size="14.00" fill="#666666">[varchar(50)]</text>
</g>
<!-- invoices&#45;&gt;clients -->
<g id="edge2" class="edge">
<title>invoices:client_id&#45;&gt;clients:id</title>
<path fill="none" stroke="#000000" d="M399.2205,-885.2379C353.7847,-862.2656 386.28,-671.0147 409,-620 418.7306,-598.1513 439.2694,-605.8487 449,-584 466.4489,-544.821 491.8889,-487.5 449,-487.5"/>
<polygon fill="#000000" stroke="#000000" points="399.2572,-885.2463 407.9858,-891.8842 404.1286,-886.3732 409,-887.5 409,-887.5 409,-887.5 404.1286,-886.3732 410.0142,-883.1158 399.2572,-885.2463 399.2572,-885.2463"/>
<text text-anchor="start" x="354.307" y="-871.5" font-family="Arial" font-size="10.00" fill="#000000">FOREIGN KEY (client_id) REFERENCES clients (id)</text>
</g>
</g>
</svg>
