<?xml version="1.0" encoding="UTF-8" standalone="no"?>
<!DOCTYPE svg PUBLIC "-//W3C//DTD SVG 1.1//EN"
 "http://www.w3.org/Graphics/SVG/1.1/DTD/svg11.dtd">
<!-- Generated by graphviz version 2.40.1 (20161225.0304)
 -->
<!-- Title: companies Pages: 1 -->
<svg width="1035pt" height="742pt"
 viewBox="0.00 0.00 1035.00 742.00" xmlns="http://www.w3.org/2000/svg" xmlns:xlink="http://www.w3.org/1999/xlink">
<g id="graph0" class="graph" transform="scale(1 1) rotate(0) translate(4 738)">
<title>companies</title>
<polygon fill="#ffffff" stroke="transparent" points="-4,4 -4,-738 1031,-738 1031,4 -4,4"/>
<!-- companies -->
<g id="node1" class="node">
<title>companies</title>
<polygon fill="#efefef" stroke="transparent" points="399,-195.5 399,-230.5 627,-230.5 627,-195.5 399,-195.5"/>
<polygon fill="none" stroke="#000000" points="399,-195.5 399,-230.5 627,-230.5 627,-195.5 399,-195.5"/>
<text text-anchor="start" x="405.7073" y="-208.3" font-family="Arial Bold" font-size="18.00" fill="#000000">companies</text>
<text text-anchor="start" x="492.7247" y="-208.3" font-family="Arial" font-size="14.00" fill="#000000">    </text>
<text text-anchor="start" x="526.9295" y="-208.3" font-family="Arial" font-size="14.00" fill="#666666">[BASE TABLE]</text>
<polygon fill="none" stroke="#000000" points="399,-165.5 399,-195.5 627,-195.5 627,-165.5 399,-165.5"/>
<text text-anchor="start" x="406" y="-176.9" font-family="Arial" font-size="14.00" fill="#000000">id </text>
<text text-anchor="start" x="420.7798" y="-176.9" font-family="Arial" font-size="14.00" fill="#666666">[bigint]</text>
<polygon fill="none" stroke="#000000" points="399,-135.5 399,-165.5 627,-165.5 627,-135.5 399,-135.5"/>
<text text-anchor="start" x="406" y="-146.9" font-family="Arial" font-size="14.00" fill="#000000">name </text>
<text text-anchor="start" x="444.899" y="-146.9" font-family="Arial" font-size="14.00" fill="#666666">[varchar(255)]</text>
<polygon fill="none" stroke="#000000" points="399,-105.5 399,-135.5 627,-135.5 627,-105.5 399,-105.5"/>
<text text-anchor="start" x="406" y="-116.9" font-family="Arial" font-size="14.00" fill="#000000">owner_name </text>
<text text-anchor="start" x="490.7966" y="-116.9" font-family="Arial" font-size="14.00" fill="#666666">[varchar(255)]</text>
<polygon fill="none" stroke="#000000" points="399,-75.5 399,-105.5 627,-105.5 627,-75.5 399,-75.5"/>
<text text-anchor="start" x="406" y="-86.9" font-family="Arial" font-size="14.00" fill="#000000">phone </text>
<text text-anchor="start" x="448.8036" y="-86.9" font-family="Arial" font-size="14.00" fill="#666666">[varchar(20)]</text>
<polygon fill="none" stroke="#000000" points="399,-45.5 399,-75.5 627,-75.5 627,-45.5 399,-45.5"/>
<text text-anchor="start" x="406" y="-56.9" font-family="Arial" font-size="14.00" fill="#000000">address </text>
<text text-anchor="start" x="459.6816" y="-56.9" font-family="Arial" font-size="14.00" fill="#666666">[text]</text>
<polygon fill="none" stroke="#000000" stroke-width="3" points="397.5,-44.5 397.5,-232.5 628.5,-232.5 628.5,-44.5 397.5,-44.5"/>
</g>
<!-- clients -->
<g id="node2" class="node">
<title>clients</title>
<polygon fill="#efefef" stroke="transparent" points="93,-580.5 93,-615.5 285,-615.5 285,-580.5 93,-580.5"/>
<polygon fill="none" stroke="#000000" points="93,-580.5 93,-615.5 285,-615.5 285,-580.5 93,-580.5"/>
<text text-anchor="start" x="99.7145" y="-593.3" font-family="Arial Bold" font-size="18.00" fill="#000000">clients</text>
<text text-anchor="start" x="150.7175" y="-593.3" font-family="Arial" font-size="14.00" fill="#000000">    </text>
<text text-anchor="start" x="184.9223" y="-593.3" font-family="Arial" font-size="14.00" fill="#666666">[BASE TABLE]</text>
<polygon fill="none" stroke="#000000" points="93,-550.5 93,-580.5 285,-580.5 285,-550.5 93,-550.5"/>
<text text-anchor="start" x="100" y="-561.9" font-family="Arial" font-size="14.00" fill="#000000">id    </text>
<text text-anchor="start" x="145.094" y="-561.9" font-family="Arial" font-size="14.00" fill="#666666">[bigint]</text>
<polygon fill="none" stroke="#000000" points="93,-520.5 93,-550.5 285,-550.5 285,-520.5 93,-520.5"/>
<text text-anchor="start" x="100" y="-531.9" font-family="Arial" font-size="14.00" fill="#000000">company_id    </text>
<text text-anchor="start" x="209.6676" y="-531.9" font-family="Arial" font-size="14.00" fill="#666666">[bigint]</text>
<polygon fill="none" stroke="#000000" points="93,-490.5 93,-520.5 285,-520.5 285,-490.5 93,-490.5"/>
<text text-anchor="start" x="100" y="-501.9" font-family="Arial" font-size="14.00" fill="#000000">name    </text>
<text text-anchor="start" x="169.2132" y="-501.9" font-family="Arial" font-size="14.00" fill="#666666">[varchar(255)]</text>
<polygon fill="none" stroke="#000000" points="93,-460.5 93,-490.5 285,-490.5 285,-460.5 93,-460.5"/>
<text text-anchor="start" x="100" y="-471.9" font-family="Arial" font-size="14.00" fill="#000000">phone    </text>
<text text-anchor="start" x="173.1178" y="-471.9" font-family="Arial" font-size="14.00" fill="#666666">[varchar(20)]</text>
<polygon fill="none" stroke="#000000" points="93,-430.5 93,-460.5 285,-460.5 285,-430.5 93,-430.5"/>
<text text-anchor="start" x="100" y="-441.9" font-family="Arial" font-size="14.00" fill="#000000">address    </text>
<text text-anchor="start" x="183.9958" y="-441.9" font-family="Arial" font-size="14.00" fill="#666666">[text]</text>
</g>
<!-- clients&#45;&gt;companies -->
<g id="edge1" class="edge">
<title>clients:company_id&#45;&gt;companies:id</title>
<path fill="none" stroke="#000000" d="M294.7633,-533.0162C333.7689,-511.5833 321.5413,-357.6037 337,-313 358.291,-251.5679 333.983,-180.5 399,-180.5"/>
<polygon fill="#000000" stroke="#000000" points="294.6913,-533.0345 283.8905,-531.1389 289.8457,-534.2672 285,-535.5 285,-535.5 285,-535.5 289.8457,-534.2672 286.1095,-539.8611 294.6913,-533.0345 294.6913,-533.0345"/>
<text text-anchor="start" x="7.438" y="-545.5" font-family="Arial" font-size="10.00" fill="#000000">FOREIGN KEY (company_id) REFERENCES companies (id)</text>
</g>
<!-- invoices -->
<g id="node3" class="node">
<title>invoices</title>
<polygon fill="#efefef" stroke="transparent" points="389,-655.5 389,-690.5 637,-690.5 637,-655.5 389,-655.5"/>
<polygon fill="none" stroke="#000000" points="389,-655.5 389,-690.5 637,-690.5 637,-655.5 389,-655.5"/>
<text text-anchor="start" x="416.7125" y="-668.3" font-family="Arial Bold" font-size="18.00" fill="#000000">invoices</text>
<text text-anchor="start" x="481.7195" y="-668.3" font-family="Arial" font-size="14.00" fill="#000000">    </text>
<text text-anchor="start" x="515.9243" y="-668.3" font-family="Arial" font-size="14.00" fill="#666666">[BASE TABLE]</text>
<polygon fill="none" stroke="#000000" points="389,-625.5 389,-655.5 637,-655.5 637,-625.5 389,-625.5"/>
<text text-anchor="start" x="396" y="-636.9" font-family="Arial" font-size="14.00" fill="#000000">id    </text>
<text text-anchor="start" x="441.094" y="-636.9" font-family="Arial" font-size="14.00" fill="#666666">[bigint]</text>
<polygon fill="none" stroke="#000000" points="389,-595.5 389,-625.5 637,-625.5 637,-595.5 389,-595.5"/>
<text text-anchor="start" x="396" y="-606.9" font-family="Arial" font-size="14.00" fill="#000000">company_id    </text>
<text text-anchor="start" x="505.6676" y="-606.9" font-family="Arial" font-size="14.00" fill="#666666">[bigint]</text>
<polygon fill="none" stroke="#000000" points="389,-565.5 389,-595.5 637,-595.5 637,-565.5 389,-565.5"/>
<text text-anchor="start" x="396" y="-576.9" font-family="Arial" font-size="14.00" fill="#000000">client_id    </text>
<text text-anchor="start" x="481.5456" y="-576.9" font-family="Arial" font-size="14.00" fill="#666666">[bigint]</text>
<polygon fill="none" stroke="#000000" points="389,-535.5 389,-565.5 637,-565.5 637,-535.5 389,-535.5"/>
<text text-anchor="start" x="396" y="-546.9" font-family="Arial" font-size="14.00" fill="#000000">issue_date    </text>
<text text-anchor="start" x="497.8976" y="-546.9" font-family="Arial" font-size="14.00" fill="#666666">[date]</text>
<polygon fill="none" stroke="#000000" points="389,-505.5 389,-535.5 637,-535.5 637,-505.5 389,-505.5"/>
<text text-anchor="start" x="396" y="-516.9" font-family="Arial" font-size="14.00" fill="#000000">due_date    </text>
<text text-anchor="start" x="488.5736" y="-516.9" font-family="Arial" font-size="14.00" fill="#666666">[date]</text>
<polygon fill="none" stroke="#000000" points="389,-475.5 389,-505.5 637,-505.5 637,-475.5 389,-475.5"/>
<text text-anchor="start" x="395.5435" y="-486.9" font-family="Arial" font-size="14.00" fill="#000000">payment_amount    </text>
<text text-anchor="start" x="537.8941" y="-486.9" font-family="Arial" font-size="14.00" fill="#666666">[decimal(15,2)]</text>
<polygon fill="none" stroke="#000000" points="389,-445.5 389,-475.5 637,-475.5 637,-445.5 389,-445.5"/>
<text text-anchor="start" x="396" y="-456.9" font-family="Arial" font-size="14.00" fill="#000000">fee_amount    </text>
<text text-anchor="start" x="504.1248" y="-456.9" font-family="Arial" font-size="14.00" fill="#666666">[decimal(15,2)]</text>
<polygon fill="none" stroke="#000000" points="389,-415.5 389,-445.5 637,-445.5 637,-415.5 389,-415.5"/>
<text text-anchor="start" x="396" y="-426.9" font-family="Arial" font-size="14.00" fill="#000000">tax_amount    </text>
<text text-anchor="start" x="503.3422" y="-426.9" font-family="Arial" font-size="14.00" fill="#666666">[decimal(15,2)]</text>
<polygon fill="none" stroke="#000000" points="389,-385.5 389,-415.5 637,-415.5 637,-385.5 389,-385.5"/>
<text text-anchor="start" x="396" y="-396.9" font-family="Arial" font-size="14.00" fill="#000000">total_amount    </text>
<text text-anchor="start" x="511.122" y="-396.9" font-family="Arial" font-size="14.00" fill="#666666">[decimal(15,2)]</text>
<polygon fill="none" stroke="#000000" points="389,-355.5 389,-385.5 637,-385.5 637,-355.5 389,-355.5"/>
<text text-anchor="start" x="396" y="-366.9" font-family="Arial" font-size="14.00" fill="#000000">status    </text>
<text text-anchor="start" x="467.5512" y="-366.9" font-family="Arial" font-size="14.00" fill="#666666">[varchar(50)]</text>
</g>
<!-- invoices&#45;&gt;companies -->
<g id="edge2" class="edge">
<title>invoices:company_id&#45;&gt;companies:id</title>
<path fill="none" stroke="#000000" d="M645.7621,-605.0632C683.2959,-555.2868 671.6171,-180.5 627,-180.5"/>
<polygon fill="#000000" stroke="#000000" points="645.4972,-605.2276 634.6274,-606.6763 641.2486,-607.8638 637,-610.5 637,-610.5 637,-610.5 641.2486,-607.8638 639.3726,-614.3237 645.4972,-605.2276 645.4972,-605.2276"/>
<text text-anchor="start" x="501.938" y="-594.5" font-family="Arial" font-size="10.00" fill="#000000">FOREIGN KEY (company_id) REFERENCES companies (id)</text>
</g>
<!-- users -->
<g id="node4" class="node">
<title>users</title>
<polygon fill="#efefef" stroke="transparent" points="742,-580.5 742,-615.5 937,-615.5 937,-580.5 742,-580.5"/>
<polygon fill="none" stroke="#000000" points="742,-580.5 742,-615.5 937,-615.5 937,-580.5 742,-580.5"/>
<text text-anchor="start" x="753.7137" y="-593.3" font-family="Arial Bold" font-size="18.00" fill="#000000">users</text>
<text text-anchor="start" x="797.7183" y="-593.3" font-family="Arial" font-size="14.00" fill="#000000">    </text>
<text text-anchor="start" x="831.9231" y="-593.3" font-family="Arial" font-size="14.00" fill="#666666">[BASE TABLE]</text>
<polygon fill="none" stroke="#000000" points="742,-550.5 742,-580.5 937,-580.5 937,-550.5 742,-550.5"/>
<text text-anchor="start" x="749" y="-561.9" font-family="Arial" font-size="14.00" fill="#000000">id    </text>
<text text-anchor="start" x="794.094" y="-561.9" font-family="Arial" font-size="14.00" fill="#666666">[bigint]</text>
<polygon fill="none" stroke="#000000" points="742,-520.5 742,-550.5 937,-550.5 937,-520.5 742,-520.5"/>
<text text-anchor="start" x="749" y="-531.9" font-family="Arial" font-size="14.00" fill="#000000">company_id    </text>
<text text-anchor="start" x="858.6676" y="-531.9" font-family="Arial" font-size="14.00" fill="#666666">[bigint]</text>
<polygon fill="none" stroke="#000000" points="742,-490.5 742,-520.5 937,-520.5 937,-490.5 742,-490.5"/>
<text text-anchor="start" x="749" y="-501.9" font-family="Arial" font-size="14.00" fill="#000000">name    </text>
<text text-anchor="start" x="818.2132" y="-501.9" font-family="Arial" font-size="14.00" fill="#666666">[varchar(255)]</text>
<polygon fill="none" stroke="#000000" points="742,-460.5 742,-490.5 937,-490.5 937,-460.5 742,-460.5"/>
<text text-anchor="start" x="749" y="-471.9" font-family="Arial" font-size="14.00" fill="#000000">email    </text>
<text text-anchor="start" x="816.6438" y="-471.9" font-family="Arial" font-size="14.00" fill="#666666">[varchar(255)]</text>
<polygon fill="none" stroke="#000000" points="742,-430.5 742,-460.5 937,-460.5 937,-430.5 742,-430.5"/>
<text text-anchor="start" x="748.8892" y="-441.9" font-family="Arial" font-size="14.00" fill="#000000">password    </text>
<text text-anchor="start" x="842.9916" y="-441.9" font-family="Arial" font-size="14.00" fill="#666666">[varchar(255)]</text>
</g>
<!-- users&#45;&gt;companies -->
<g id="edge3" class="edge">
<title>users:company_id&#45;&gt;companies:id</title>
<path fill="none" stroke="#000000" d="M732.2149,-533.0164C693.0669,-511.585 704.5692,-357.6155 689,-313 667.5782,-251.6134 692.017,-180.5 627,-180.5"/>
<polygon fill="#000000" stroke="#000000" points="732.3073,-533.0398 740.8929,-539.8617 737.1537,-534.2699 742,-535.5 742,-535.5 742,-535.5 737.1537,-534.2699 743.1071,-531.1383 732.3073,-533.0398 732.3073,-533.0398"/>
<text text-anchor="start" x="749.438" y="-545.5" font-family="Arial" font-size="10.00" fill="#000000">FOREIGN KEY (company_id) REFERENCES companies (id)</text>
</g>
</g>
</svg>
