<?xml version="1.0" encoding="UTF-8" standalone="no"?>
<!DOCTYPE svg PUBLIC "-//W3C//DTD SVG 1.1//EN"
 "http://www.w3.org/Graphics/SVG/1.1/DTD/svg11.dtd">
<!-- Generated by graphviz version 2.40.1 (20161225.0304)
 -->
<!-- Title: invoices Pages: 1 -->
<svg width="758pt" height="742pt"
 viewBox="0.00 0.00 758.00 742.00" xmlns="http://www.w3.org/2000/svg" xmlns:xlink="http://www.w3.org/1999/xlink">
<g id="graph0" class="graph" transform="scale(1 1) rotate(0) translate(4 738)">
<title>invoices</title>
<polygon fill="#ffffff" stroke="transparent" points="-4,4 -4,-738 754,-738 754,4 -4,4"/>
<!-- invoices -->
<g id="node1" class="node">
<title>invoices</title>
<polygon fill="#efefef" stroke="transparent" points="285,-652.5 285,-687.5 503,-687.5 503,-652.5 285,-652.5"/>
<polygon fill="none" stroke="#000000" points="285,-652.5 285,-687.5 503,-687.5 503,-652.5 285,-652.5"/>
<text text-anchor="start" x="297.7125" y="-665.3" font-family="Arial Bold" font-size="18.00" fill="#000000">invoices</text>
<text text-anchor="start" x="362.7195" y="-665.3" font-family="Arial" font-size="14.00" fill="#000000">    </text>
<text text-anchor="start" x="396.9243" y="-665.3" font-family="Arial" font-size="14.00" fill="#666666">[BASE TABLE]</text>
<polygon fill="none" stroke="#000000" points="285,-622.5 285,-652.5 503,-652.5 503,-622.5 285,-622.5"/>
<text text-anchor="start" x="292" y="-633.9" font-family="Arial" font-size="14.00" fill="#000000">id </text>
<text text-anchor="start" x="306.7798" y="-633.9" font-family="Arial" font-size="14.00" fill="#666666">[bigint]</text>
<polygon fill="none" stroke="#000000" points="285,-592.5 285,-622.5 503,-622.5 503,-592.5 285,-592.5"/>
<text text-anchor="start" x="292" y="-603.9" font-family="Arial" font-size="14.00" fill="#000000">company_id </text>
<text text-anchor="start" x="371.3534" y="-603.9" font-family="Arial" font-size="14.00" fill="#666666">[bigint]</text>
<polygon fill="none" stroke="#000000" points="285,-562.5 285,-592.5 503,-592.5 503,-562.5 285,-562.5"/>
<text text-anchor="start" x="292" y="-573.9" font-family="Arial" font-size="14.00" fill="#000000">client_id </text>
<text text-anchor="start" x="347.2314" y="-573.9" font-family="Arial" font-size="14.00" fill="#666666">[bigint]</text>
<polygon fill="none" stroke="#000000" points="285,-532.5 285,-562.5 503,-562.5 503,-532.5 285,-532.5"/>
<text text-anchor="start" x="292" y="-543.9" font-family="Arial" font-size="14.00" fill="#000000">issue_date </text>
<text text-anchor="start" x="363.5834" y="-543.9" font-family="Arial" font-size="14.00" fill="#666666">[date]</text>
<polygon fill="none" stroke="#000000" points="285,-502.5 285,-532.5 503,-532.5 503,-502.5 285,-502.5"/>
<text text-anchor="start" x="292" y="-513.9" font-family="Arial" font-size="14.00" fill="#000000">due_date </text>
<text text-anchor="start" x="354.2594" y="-513.9" font-family="Arial" font-size="14.00" fill="#666666">[date]</text>
<polygon fill="none" stroke="#000000" points="285,-472.5 285,-502.5 503,-502.5 503,-472.5 285,-472.5"/>
<text text-anchor="start" x="291.7006" y="-483.9" font-family="Arial" font-size="14.00" fill="#000000">payment_amount </text>
<text text-anchor="start" x="403.737" y="-483.9" font-family="Arial" font-size="14.00" fill="#666666">[decimal(15,2)]</text>
<polygon fill="none" stroke="#000000" points="285,-442.5 285,-472.5 503,-472.5 503,-442.5 285,-442.5"/>
<text text-anchor="start" x="292" y="-453.9" font-family="Arial" font-size="14.00" fill="#000000">fee_amount </text>
<text text-anchor="start" x="369.8106" y="-453.9" font-family="Arial" font-size="14.00" fill="#666666">[decimal(15,2)]</text>
<polygon fill="none" stroke="#000000" points="285,-412.5 285,-442.5 503,-442.5 503,-412.5 285,-412.5"/>
<text text-anchor="start" x="292" y="-423.9" font-family="Arial" font-size="14.00" fill="#000000">tax_amount </text>
<text text-anchor="start" x="369.028" y="-423.9" font-family="Arial" font-size="14.00" fill="#666666">[decimal(15,2)]</text>
<polygon fill="none" stroke="#000000" points="285,-382.5 285,-412.5 503,-412.5 503,-382.5 285,-382.5"/>
<text text-anchor="start" x="292" y="-393.9" font-family="Arial" font-size="14.00" fill="#000000">total_amount </text>
<text text-anchor="start" x="376.8078" y="-393.9" font-family="Arial" font-size="14.00" fill="#666666">[decimal(15,2)]</text>
<polygon fill="none" stroke="#000000" points="285,-352.5 285,-382.5 503,-382.5 503,-352.5 285,-352.5"/>
<text text-anchor="start" x="292" y="-363.9" font-family="Arial" font-size="14.00" fill="#000000">status </text>
<text text-anchor="start" x="333.237" y="-363.9" font-family="Arial" font-size="14.00" fill="#666666">[varchar(50)]</text>
<polygon fill="none" stroke="#000000" stroke-width="3" points="283.5,-351.5 283.5,-689.5 504.5,-689.5 504.5,-351.5 283.5,-351.5"/>
</g>
<!-- companies -->
<g id="node2" class="node">
<title>companies</title>
<polygon fill="#efefef" stroke="transparent" points="123,-192.5 123,-227.5 351,-227.5 351,-192.5 123,-192.5"/>
<polygon fill="none" stroke="#000000" points="123,-192.5 123,-227.5 351,-227.5 351,-192.5 123,-192.5"/>
<text text-anchor="start" x="129.7073" y="-205.3" font-family="Arial Bold" font-size="18.00" fill="#000000">companies</text>
<text text-anchor="start" x="216.7247" y="-205.3" font-family="Arial" font-size="14.00" fill="#000000">    </text>
<text text-anchor="start" x="250.9295" y="-205.3" font-family="Arial" font-size="14.00" fill="#666666">[BASE TABLE]</text>
<polygon fill="none" stroke="#000000" points="123,-162.5 123,-192.5 351,-192.5 351,-162.5 123,-162.5"/>
<text text-anchor="start" x="130" y="-173.9" font-family="Arial" font-size="14.00" fill="#000000">id    </text>
<text text-anchor="start" x="175.094" y="-173.9" font-family="Arial" font-size="14.00" fill="#666666">[bigint]</text>
<polygon fill="none" stroke="#000000" points="123,-132.5 123,-162.5 351,-162.5 351,-132.5 123,-132.5"/>
<text text-anchor="start" x="130" y="-143.9" font-family="Arial" font-size="14.00" fill="#000000">name    </text>
<text text-anchor="start" x="199.2132" y="-143.9" font-family="Arial" font-size="14.00" fill="#666666">[varchar(255)]</text>
<polygon fill="none" stroke="#000000" points="123,-102.5 123,-132.5 351,-132.5 351,-102.5 123,-102.5"/>
<text text-anchor="start" x="130" y="-113.9" font-family="Arial" font-size="14.00" fill="#000000">owner_name    </text>
<text text-anchor="start" x="245.1108" y="-113.9" font-family="Arial" font-size="14.00" fill="#666666">[varchar(255)]</text>
<polygon fill="none" stroke="#000000" points="123,-72.5 123,-102.5 351,-102.5 351,-72.5 123,-72.5"/>
<text text-anchor="start" x="130" y="-83.9" font-family="Arial" font-size="14.00" fill="#000000">phone    </text>
<text text-anchor="start" x="203.1178" y="-83.9" font-family="Arial" font-size="14.00" fill="#666666">[varchar(20)]</text>
<polygon fill="none" stroke="#000000" points="123,-42.5 123,-72.5 351,-72.5 351,-42.5 123,-42.5"/>
<text text-anchor="start" x="130" y="-53.9" font-family="Arial" font-size="14.00" fill="#000000">address    </text>
<text text-anchor="start" x="213.9958" y="-53.9" font-family="Arial" font-size="14.00" fill="#666666">[text]</text>
</g>
<!-- invoices&#45;&gt;companies -->
<g id="edge1" class="edge">
<title>invoices:company_id&#45;&gt;companies:id</title>
<path fill="none" stroke="#000000" d="M274.8469,-607.1175C154.8942,-597.7588 218.6222,-418.8162 285,-307 302.0563,-278.268 333.9437,-299.732 351,-271 372.2126,-235.2664 392.5556,-177.5 351,-177.5"/>
<polygon fill="#000000" stroke="#000000" points="275.0071,-607.1234 284.8305,-611.9968 280.0035,-607.3117 285,-607.5 285,-607.5 285,-607.5 280.0035,-607.3117 285.1695,-603.0032 275.0071,-607.1234 275.0071,-607.1234"/>
<text text-anchor="start" x="7.438" y="-617.5" font-family="Arial" font-size="10.00" fill="#000000">FOREIGN KEY (company_id) REFERENCES companies (id)</text>
</g>
<!-- clients -->
<g id="node3" class="node">
<title>clients</title>
<polygon fill="#efefef" stroke="transparent" points="455,-192.5 455,-227.5 647,-227.5 647,-192.5 455,-192.5"/>
<polygon fill="none" stroke="#000000" points="455,-192.5 455,-227.5 647,-227.5 647,-192.5 455,-192.5"/>
<text text-anchor="start" x="461.7145" y="-205.3" font-family="Arial Bold" font-size="18.00" fill="#000000">clients</text>
<text text-anchor="start" x="512.7175" y="-205.3" font-family="Arial" font-size="14.00" fill="#000000">    </text>
<text text-anchor="start" x="546.9223" y="-205.3" font-family="Arial" font-size="14.00" fill="#666666">[BASE TABLE]</text>
<polygon fill="none" stroke="#000000" points="455,-162.5 455,-192.5 647,-192.5 647,-162.5 455,-162.5"/>
<text text-anchor="start" x="462" y="-173.9" font-family="Arial" font-size="14.00" fill="#000000">id    </text>
<text text-anchor="start" x="507.094" y="-173.9" font-family="Arial" font-size="14.00" fill="#666666">[bigint]</text>
<polygon fill="none" stroke="#000000" points="455,-132.5 455,-162.5 647,-162.5 647,-132.5 455,-132.5"/>
<text text-anchor="start" x="462" y="-143.9" font-family="Arial" font-size="14.00" fill="#000000">company_id    </text>
<text text-anchor="start" x="571.6676" y="-143.9" font-family="Arial" font-size="14.00" fill="#666666">[bigint]</text>
<polygon fill="none" stroke="#000000" points="455,-102.5 455,-132.5 647,-132.5 647,-102.5 455,-102.5"/>
<text text-anchor="start" x="462" y="-113.9" font-family="Arial" font-size="14.00" fill="#000000">name    </text>
<text text-anchor="start" x="531.2132" y="-113.9" font-family="Arial" font-size="14.00" fill="#666666">[varchar(255)]</text>
<polygon fill="none" stroke="#000000" points="455,-72.5 455,-102.5 647,-102.5 647,-72.5 455,-72.5"/>
<text text-anchor="start" x="462" y="-83.9" font-family="Arial" font-size="14.00" fill="#000000">phone    </text>
<text text-anchor="start" x="535.1178" y="-83.9" font-family="Arial" font-size="14.00" fill="#666666">[varchar(20)]</text>
<polygon fill="none" stroke="#000000" points="455,-42.5 455,-72.5 647,-72.5 647,-42.5 455,-42.5"/>
<text text-anchor="start" x="462" y="-53.9" font-family="Arial" font-size="14.00" fill="#000000">address    </text>
<text text-anchor="start" x="545.9958" y="-53.9" font-family="Arial" font-size="14.00" fill="#666666">[text]</text>
</g>
<!-- invoices&#45;&gt;clients -->
<g id="edge2" class="edge">
<title>invoices:client_id&#45;&gt;clients:id</title>
<path fill="none" stroke="#000000" d="M513.0907,-577.0859C619.3391,-567.9986 555.1899,-411.3797 503,-307 491.0743,-283.1486 466.9257,-294.8514 455,-271 436.4158,-233.8316 413.4444,-177.5 455,-177.5"/>
<polygon fill="#000000" stroke="#000000" points="512.9916,-577.0898 502.8154,-573.0038 507.9958,-577.2949 503,-577.5 503,-577.5 503,-577.5 507.9958,-577.2949 503.1846,-581.9962 512.9916,-577.0898 512.9916,-577.0898"/>
<text text-anchor="start" x="510.057" y="-587.5" font-family="Arial" font-size="10.00" fill="#000000">FOREIGN KEY (client_id) REFERENCES clients (id)</text>
</g>
</g>
</svg>
