<?xml version="1.0" encoding="UTF-8" standalone="no"?>
<!DOCTYPE svg PUBLIC "-//W3C//DTD SVG 1.1//EN"
 "http://www.w3.org/Graphics/SVG/1.1/DTD/svg11.dtd">
<!-- Generated by graphviz version 2.40.1 (20161225.0304)
 -->
<!-- Title: uct Pages: 1 -->
<svg width="950pt" height="1043pt"
 viewBox="0.00 0.00 950.00 1043.00" xmlns="http://www.w3.org/2000/svg" xmlns:xlink="http://www.w3.org/1999/xlink">
<g id="graph0" class="graph" transform="scale(1 1) rotate(0) translate(4 1039)">
<title>uct</title>
<polygon fill="#ffffff" stroke="transparent" points="-4,4 -4,-1039 946,-1039 946,4 -4,4"/>
<!-- bank_accounts -->
<g id="node1" class="node">
<title>bank_accounts</title>
<polygon fill="#efefef" stroke="transparent" points="43,-896.5 43,-931.5 305,-931.5 305,-896.5 43,-896.5"/>
<polygon fill="none" stroke="#000000" points="43,-896.5 43,-931.5 305,-931.5 305,-896.5 43,-896.5"/>
<text text-anchor="start" x="49.6901" y="-909.3" font-family="Arial Bold" font-size="18.00" fill="#000000">bank_accounts</text>
<text text-anchor="start" x="170.7419" y="-909.3" font-family="Arial" font-size="14.00" fill="#000000">    </text>
<text text-anchor="start" x="204.9467" y="-909.3" font-family="Arial" font-size="14.00" fill="#666666">[BASE TABLE]</text>
<polygon fill="none" stroke="#000000" points="43,-866.5 43,-896.5 305,-896.5 305,-866.5 43,-866.5"/>
<text text-anchor="start" x="50" y="-877.9" font-family="Arial" font-size="14.00" fill="#000000">id    </text>
<text text-anchor="start" x="95.094" y="-877.9" font-family="Arial" font-size="14.00" fill="#666666">[bigint]</text>
<polygon fill="none" stroke="#000000" points="43,-836.5 43,-866.5 305,-866.5 305,-836.5 43,-836.5"/>
<text text-anchor="start" x="50" y="-847.9" font-family="Arial" font-size="14.00" fill="#000000">client_id    </text>
<text text-anchor="start" x="135.5456" y="-847.9" font-family="Arial" font-size="14.00" fill="#666666">[bigint]</text>
<polygon fill="none" stroke="#000000" points="43,-806.5 43,-836.5 305,-836.5 305,-806.5 43,-806.5"/>
<text text-anchor="start" x="50" y="-817.9" font-family="Arial" font-size="14.00" fill="#000000">bank_name    </text>
<text text-anchor="start" x="157.3436" y="-817.9" font-family="Arial" font-size="14.00" fill="#666666">[varchar(255)]</text>
<polygon fill="none" stroke="#000000" points="43,-776.5 43,-806.5 305,-806.5 305,-776.5 43,-776.5"/>
<text text-anchor="start" x="50" y="-787.9" font-family="Arial" font-size="14.00" fill="#000000">branch    </text>
<text text-anchor="start" x="126.9958" y="-787.9" font-family="Arial" font-size="14.00" fill="#666666">[varchar(255)]</text>
<polygon fill="none" stroke="#000000" points="43,-746.5 43,-776.5 305,-776.5 305,-746.5 43,-746.5"/>
<text text-anchor="start" x="50" y="-757.9" font-family="Arial" font-size="14.00" fill="#000000">account_no    </text>
<text text-anchor="start" x="156.5736" y="-757.9" font-family="Arial" font-size="14.00" fill="#666666">[varchar(255)]</text>
<polygon fill="none" stroke="#000000" points="43,-716.5 43,-746.5 305,-746.5 305,-716.5 43,-716.5"/>
<text text-anchor="start" x="50" y="-727.9" font-family="Arial" font-size="14.00" fill="#000000">holder    </text>
<text text-anchor="start" x="123.1024" y="-727.9" font-family="Arial" font-size="14.00" fill="#666666">[varchar(255)]</text>
</g>
<!-- clients -->
<g id="node2" class="node">
<title>clients</title>
<polygon fill="#efefef" stroke="transparent" points="270,-499.5 270,-534.5 462,-534.5 462,-499.5 270,-499.5"/>
<polygon fill="none" stroke="#000000" points="270,-499.5 270,-534.5 462,-534.5 462,-499.5 270,-499.5"/>
<text text-anchor="start" x="276.7145" y="-512.3" font-family="Arial Bold" font-size="18.00" fill="#000000">clients</text>
<text text-anchor="start" x="327.7175" y="-512.3" font-family="Arial" font-size="14.00" fill="#000000">    </text>
<text text-anchor="start" x="361.9223" y="-512.3" font-family="Arial" font-size="14.00" fill="#666666">[BASE TABLE]</text>
<polygon fill="none" stroke="#000000" points="270,-469.5 270,-499.5 462,-499.5 462,-469.5 270,-469.5"/>
<text text-anchor="start" x="277" y="-480.9" font-family="Arial" font-size="14.00" fill="#000000">id    </text>
<text text-anchor="start" x="322.094" y="-480.9" font-family="Arial" font-size="14.00" fill="#666666">[bigint]</text>
<polygon fill="none" stroke="#000000" points="270,-439.5 270,-469.5 462,-469.5 462,-439.5 270,-439.5"/>
<text text-anchor="start" x="277" y="-450.9" font-family="Arial" font-size="14.00" fill="#000000">company_id    </text>
<text text-anchor="start" x="386.6676" y="-450.9" font-family="Arial" font-size="14.00" fill="#666666">[bigint]</text>
<polygon fill="none" stroke="#000000" points="270,-409.5 270,-439.5 462,-439.5 462,-409.5 270,-409.5"/>
<text text-anchor="start" x="277" y="-420.9" font-family="Arial" font-size="14.00" fill="#000000">name    </text>
<text text-anchor="start" x="346.2132" y="-420.9" font-family="Arial" font-size="14.00" fill="#666666">[varchar(255)]</text>
<polygon fill="none" stroke="#000000" points="270,-379.5 270,-409.5 462,-409.5 462,-379.5 270,-379.5"/>
<text text-anchor="start" x="277" y="-390.9" font-family="Arial" font-size="14.00" fill="#000000">phone    </text>
<text text-anchor="start" x="350.1178" y="-390.9" font-family="Arial" font-size="14.00" fill="#666666">[varchar(20)]</text>
<polygon fill="none" stroke="#000000" points="270,-349.5 270,-379.5 462,-379.5 462,-349.5 270,-349.5"/>
<text text-anchor="start" x="277" y="-360.9" font-family="Arial" font-size="14.00" fill="#000000">address    </text>
<text text-anchor="start" x="360.9958" y="-360.9" font-family="Arial" font-size="14.00" fill="#666666">[text]</text>
</g>
<!-- bank_accounts&#45;&gt;clients -->
<g id="edge1" class="edge">
<title>bank_accounts:client_id&#45;&gt;clients:id</title>
<path fill="none" stroke="#000000" d="M315.1643,-850.8546C377.8923,-842.1911 318.0768,-748.0451 305,-674 297.1019,-629.2782 277.8981,-622.7218 270,-578 262.7729,-537.0777 228.4444,-484.5 270,-484.5"/>
<polygon fill="#000000" stroke="#000000" points="314.9799,-850.8662 304.7148,-847.009 309.99,-851.1831 305,-851.5 305,-851.5 305,-851.5 309.99,-851.1831 305.2852,-855.991 314.9799,-850.8662 314.9799,-850.8662"/>
<text text-anchor="start" x="312.057" y="-861.5" font-family="Arial" font-size="10.00" fill="#000000">FOREIGN KEY (client_id) REFERENCES clients (id)</text>
</g>
<!-- companies -->
<g id="node3" class="node">
<title>companies</title>
<polygon fill="#efefef" stroke="transparent" points="419,-192.5 419,-227.5 647,-227.5 647,-192.5 419,-192.5"/>
<polygon fill="none" stroke="#000000" points="419,-192.5 419,-227.5 647,-227.5 647,-192.5 419,-192.5"/>
<text text-anchor="start" x="425.7073" y="-205.3" font-family="Arial Bold" font-size="18.00" fill="#000000">companies</text>
<text text-anchor="start" x="512.7247" y="-205.3" font-family="Arial" font-size="14.00" fill="#000000">    </text>
<text text-anchor="start" x="546.9295" y="-205.3" font-family="Arial" font-size="14.00" fill="#666666">[BASE TABLE]</text>
<polygon fill="none" stroke="#000000" points="419,-162.5 419,-192.5 647,-192.5 647,-162.5 419,-162.5"/>
<text text-anchor="start" x="426" y="-173.9" font-family="Arial" font-size="14.00" fill="#000000">id    </text>
<text text-anchor="start" x="471.094" y="-173.9" font-family="Arial" font-size="14.00" fill="#666666">[bigint]</text>
<polygon fill="none" stroke="#000000" points="419,-132.5 419,-162.5 647,-162.5 647,-132.5 419,-132.5"/>
<text text-anchor="start" x="426" y="-143.9" font-family="Arial" font-size="14.00" fill="#000000">name    </text>
<text text-anchor="start" x="495.2132" y="-143.9" font-family="Arial" font-size="14.00" fill="#666666">[varchar(255)]</text>
<polygon fill="none" stroke="#000000" points="419,-102.5 419,-132.5 647,-132.5 647,-102.5 419,-102.5"/>
<text text-anchor="start" x="426" y="-113.9" font-family="Arial" font-size="14.00" fill="#000000">owner_name    </text>
<text text-anchor="start" x="541.1108" y="-113.9" font-family="Arial" font-size="14.00" fill="#666666">[varchar(255)]</text>
<polygon fill="none" stroke="#000000" points="419,-72.5 419,-102.5 647,-102.5 647,-72.5 419,-72.5"/>
<text text-anchor="start" x="426" y="-83.9" font-family="Arial" font-size="14.00" fill="#000000">phone    </text>
<text text-anchor="start" x="499.1178" y="-83.9" font-family="Arial" font-size="14.00" fill="#666666">[varchar(20)]</text>
<polygon fill="none" stroke="#000000" points="419,-42.5 419,-72.5 647,-72.5 647,-42.5 419,-42.5"/>
<text text-anchor="start" x="426" y="-53.9" font-family="Arial" font-size="14.00" fill="#000000">address    </text>
<text text-anchor="start" x="509.9958" y="-53.9" font-family="Arial" font-size="14.00" fill="#666666">[text]</text>
</g>
<!-- clients&#45;&gt;companies -->
<g id="edge2" class="edge">
<title>clients:company_id&#45;&gt;companies:id</title>
<path fill="none" stroke="#000000" d="M472.165,-453.6733C523.3039,-444.6118 488.1669,-363.0338 462,-307 451.4539,-284.4165 429.5461,-293.5835 419,-271 401.417,-233.3476 377.4444,-177.5 419,-177.5"/>
<polygon fill="#000000" stroke="#000000" points="471.9671,-453.6893 461.6352,-450.0148 466.9835,-454.0946 462,-454.5 462,-454.5 462,-454.5 466.9835,-454.0946 462.3648,-458.9852 471.9671,-453.6893 471.9671,-453.6893"/>
<text text-anchor="start" x="469.438" y="-464.5" font-family="Arial" font-size="10.00" fill="#000000">FOREIGN KEY (company_id) REFERENCES companies (id)</text>
</g>
<!-- invoices -->
<g id="node4" class="node">
<title>invoices</title>
<polygon fill="#efefef" stroke="transparent" points="409,-956.5 409,-991.5 657,-991.5 657,-956.5 409,-956.5"/>
<polygon fill="none" stroke="#000000" points="409,-956.5 409,-991.5 657,-991.5 657,-956.5 409,-956.5"/>
<text text-anchor="start" x="436.7125" y="-969.3" font-family="Arial Bold" font-size="18.00" fill="#000000">invoices</text>
<text text-anchor="start" x="501.7195" y="-969.3" font-family="Arial" font-size="14.00" fill="#000000">    </text>
<text text-anchor="start" x="535.9243" y="-969.3" font-family="Arial" font-size="14.00" fill="#666666">[BASE TABLE]</text>
<polygon fill="none" stroke="#000000" points="409,-926.5 409,-956.5 657,-956.5 657,-926.5 409,-926.5"/>
<text text-anchor="start" x="416" y="-937.9" font-family="Arial" font-size="14.00" fill="#000000">id    </text>
<text text-anchor="start" x="461.094" y="-937.9" font-family="Arial" font-size="14.00" fill="#666666">[bigint]</text>
<polygon fill="none" stroke="#000000" points="409,-896.5 409,-926.5 657,-926.5 657,-896.5 409,-896.5"/>
<text text-anchor="start" x="416" y="-907.9" font-family="Arial" font-size="14.00" fill="#000000">company_id    </text>
<text text-anchor="start" x="525.6676" y="-907.9" font-family="Arial" font-size="14.00" fill="#666666">[bigint]</text>
<polygon fill="none" stroke="#000000" points="409,-866.5 409,-896.5 657,-896.5 657,-866.5 409,-866.5"/>
<text text-anchor="start" x="416" y="-877.9" font-family="Arial" font-size="14.00" fill="#000000">client_id    </text>
<text text-anchor="start" x="501.5456" y="-877.9" font-family="Arial" font-size="14.00" fill="#666666">[bigint]</text>
<polygon fill="none" stroke="#000000" points="409,-836.5 409,-866.5 657,-866.5 657,-836.5 409,-836.5"/>
<text text-anchor="start" x="416" y="-847.9" font-family="Arial" font-size="14.00" fill="#000000">issue_date    </text>
<text text-anchor="start" x="517.8976" y="-847.9" font-family="Arial" font-size="14.00" fill="#666666">[date]</text>
<polygon fill="none" stroke="#000000" points="409,-806.5 409,-836.5 657,-836.5 657,-806.5 409,-806.5"/>
<text text-anchor="start" x="416" y="-817.9" font-family="Arial" font-size="14.00" fill="#000000">due_date    </text>
<text text-anchor="start" x="508.5736" y="-817.9" font-family="Arial" font-size="14.00" fill="#666666">[date]</text>
<polygon fill="none" stroke="#000000" points="409,-776.5 409,-806.5 657,-806.5 657,-776.5 409,-776.5"/>
<text text-anchor="start" x="415.5435" y="-787.9" font-family="Arial" font-size="14.00" fill="#000000">payment_amount    </text>
<text text-anchor="start" x="557.8941" y="-787.9" font-family="Arial" font-size="14.00" fill="#666666">[decimal(15,2)]</text>
<polygon fill="none" stroke="#000000" points="409,-746.5 409,-776.5 657,-776.5 657,-746.5 409,-746.5"/>
<text text-anchor="start" x="416" y="-757.9" font-family="Arial" font-size="14.00" fill="#000000">fee_amount    </text>
<text text-anchor="start" x="524.1248" y="-757.9" font-family="Arial" font-size="14.00" fill="#666666">[decimal(15,2)]</text>
<polygon fill="none" stroke="#000000" points="409,-716.5 409,-746.5 657,-746.5 657,-716.5 409,-716.5"/>
<text text-anchor="start" x="416" y="-727.9" font-family="Arial" font-size="14.00" fill="#000000">tax_amount    </text>
<text text-anchor="start" x="523.3422" y="-727.9" font-family="Arial" font-size="14.00" fill="#666666">[decimal(15,2)]</text>
<polygon fill="none" stroke="#000000" points="409,-686.5 409,-716.5 657,-716.5 657,-686.5 409,-686.5"/>
<text text-anchor="start" x="416" y="-697.9" font-family="Arial" font-size="14.00" fill="#000000">total_amount    </text>
<text text-anchor="start" x="531.122" y="-697.9" font-family="Arial" font-size="14.00" fill="#666666">[decimal(15,2)]</text>
<polygon fill="none" stroke="#000000" points="409,-656.5 409,-686.5 657,-686.5 657,-656.5 409,-656.5"/>
<text text-anchor="start" x="416" y="-667.9" font-family="Arial" font-size="14.00" fill="#000000">status    </text>
<text text-anchor="start" x="487.5512" y="-667.9" font-family="Arial" font-size="14.00" fill="#666666">[varchar(50)]</text>
</g>
<!-- invoices&#45;&gt;clients -->
<g id="edge4" class="edge">
<title>invoices:client_id&#45;&gt;clients:id</title>
<path fill="none" stroke="#000000" d="M399.1829,-879.2196C353.3709,-856.0641 382.8624,-663.351 409,-614 422.3277,-588.8358 448.6723,-603.1642 462,-578 481.4495,-541.277 503.5556,-484.5 462,-484.5"/>
<polygon fill="#000000" stroke="#000000" points="399.2593,-879.2373 407.9818,-885.8833 404.1297,-880.3686 409,-881.5 409,-881.5 409,-881.5 404.1297,-880.3686 410.0182,-877.1167 399.2593,-879.2373 399.2593,-879.2373"/>
<text text-anchor="start" x="416.057" y="-891.5" font-family="Arial" font-size="10.00" fill="#000000">FOREIGN KEY (client_id) REFERENCES clients (id)</text>
</g>
<!-- invoices&#45;&gt;companies -->
<g id="edge3" class="edge">
<title>invoices:company_id&#45;&gt;companies:id</title>
<path fill="none" stroke="#000000" d="M667.0708,-911.1089C786.2874,-901.5426 731.8262,-718.7567 657,-614 628.3256,-573.8558 580.6744,-618.1442 552,-578 516.9965,-528.9952 517.7833,-356.5574 552,-307 577.6543,-269.8439 621.3457,-308.1561 647,-271 670.6108,-236.8036 688.5556,-177.5 647,-177.5"/>
<polygon fill="#000000" stroke="#000000" points="666.9925,-911.1119 656.8253,-907.0034 661.9962,-911.3059 657,-911.5 657,-911.5 657,-911.5 661.9962,-911.3059 657.1747,-915.9966 666.9925,-911.1119 666.9925,-911.1119"/>
<text text-anchor="start" x="664.438" y="-921.5" font-family="Arial" font-size="10.00" fill="#000000">FOREIGN KEY (company_id) REFERENCES companies (id)</text>
</g>
<!-- users -->
<g id="node5" class="node">
<title>users</title>
<polygon fill="#efefef" stroke="transparent" points="605,-499.5 605,-534.5 800,-534.5 800,-499.5 605,-499.5"/>
<polygon fill="none" stroke="#000000" points="605,-499.5 605,-534.5 800,-534.5 800,-499.5 605,-499.5"/>
<text text-anchor="start" x="616.7137" y="-512.3" font-family="Arial Bold" font-size="18.00" fill="#000000">users</text>
<text text-anchor="start" x="660.7183" y="-512.3" font-family="Arial" font-size="14.00" fill="#000000">    </text>
<text text-anchor="start" x="694.9231" y="-512.3" font-family="Arial" font-size="14.00" fill="#666666">[BASE TABLE]</text>
<polygon fill="none" stroke="#000000" points="605,-469.5 605,-499.5 800,-499.5 800,-469.5 605,-469.5"/>
<text text-anchor="start" x="612" y="-480.9" font-family="Arial" font-size="14.00" fill="#000000">id    </text>
<text text-anchor="start" x="657.094" y="-480.9" font-family="Arial" font-size="14.00" fill="#666666">[bigint]</text>
<polygon fill="none" stroke="#000000" points="605,-439.5 605,-469.5 800,-469.5 800,-439.5 605,-439.5"/>
<text text-anchor="start" x="612" y="-450.9" font-family="Arial" font-size="14.00" fill="#000000">company_id    </text>
<text text-anchor="start" x="721.6676" y="-450.9" font-family="Arial" font-size="14.00" fill="#666666">[bigint]</text>
<polygon fill="none" stroke="#000000" points="605,-409.5 605,-439.5 800,-439.5 800,-409.5 605,-409.5"/>
<text text-anchor="start" x="612" y="-420.9" font-family="Arial" font-size="14.00" fill="#000000">name    </text>
<text text-anchor="start" x="681.2132" y="-420.9" font-family="Arial" font-size="14.00" fill="#666666">[varchar(255)]</text>
<polygon fill="none" stroke="#000000" points="605,-379.5 605,-409.5 800,-409.5 800,-379.5 605,-379.5"/>
<text text-anchor="start" x="612" y="-390.9" font-family="Arial" font-size="14.00" fill="#000000">email    </text>
<text text-anchor="start" x="679.6438" y="-390.9" font-family="Arial" font-size="14.00" fill="#666666">[varchar(255)]</text>
<polygon fill="none" stroke="#000000" points="605,-349.5 605,-379.5 800,-379.5 800,-349.5 605,-349.5"/>
<text text-anchor="start" x="611.8892" y="-360.9" font-family="Arial" font-size="14.00" fill="#000000">password    </text>
<text text-anchor="start" x="705.9916" y="-360.9" font-family="Arial" font-size="14.00" fill="#666666">[varchar(255)]</text>
</g>
<!-- users&#45;&gt;companies -->
<g id="edge5" class="edge">
<title>users:company_id&#45;&gt;companies:id</title>
<path fill="none" stroke="#000000" d="M594.8381,-453.6747C543.733,-444.6289 579.1587,-363.1847 605,-307 615.2732,-284.6638 636.7268,-293.3362 647,-271 664.3643,-233.2462 688.5556,-177.5 647,-177.5"/>
<polygon fill="#000000" stroke="#000000" points="595.0328,-453.6905 604.6357,-458.9852 600.0164,-454.0952 605,-454.5 605,-454.5 605,-454.5 600.0164,-454.0952 605.3643,-450.0148 595.0328,-453.6905 595.0328,-453.6905"/>
<text text-anchor="start" x="398.688" y="-438.5" font-family="Arial" font-size="10.00" fill="#000000">FOREIGN KEY (company_id) REFERENCES companies (id)</text>
</g>
</g>
</svg>
