<?xml version="1.0" encoding="UTF-8" standalone="no"?>
<!DOCTYPE svg PUBLIC "-//W3C//DTD SVG 1.1//EN"
 "http://www.w3.org/Graphics/SVG/1.1/DTD/svg11.dtd">
<!-- Generated by graphviz version 2.40.1 (20161225.0304)
 -->
<!-- Title: users Pages: 1 -->
<svg width="542pt" height="592pt"
 viewBox="0.00 0.00 542.00 592.00" xmlns="http://www.w3.org/2000/svg" xmlns:xlink="http://www.w3.org/1999/xlink">
<g id="graph0" class="graph" transform="scale(1 1) rotate(0) translate(4 588)">
<title>users</title>
<polygon fill="#ffffff" stroke="transparent" points="-4,4 -4,-588 538,-588 538,4 -4,4"/>
<!-- users -->
<g id="node1" class="node">
<title>users</title>
<polygon fill="#efefef" stroke="transparent" points="64,-502.5 64,-537.5 249,-537.5 249,-502.5 64,-502.5"/>
<polygon fill="none" stroke="#000000" points="64,-502.5 64,-537.5 249,-537.5 249,-502.5 64,-502.5"/>
<text text-anchor="start" x="70.7137" y="-515.3" font-family="Arial Bold" font-size="18.00" fill="#000000">users</text>
<text text-anchor="start" x="114.7183" y="-515.3" font-family="Arial" font-size="14.00" fill="#000000">    </text>
<text text-anchor="start" x="148.9231" y="-515.3" font-family="Arial" font-size="14.00" fill="#666666">[BASE TABLE]</text>
<polygon fill="none" stroke="#000000" points="64,-472.5 64,-502.5 249,-502.5 249,-472.5 64,-472.5"/>
<text text-anchor="start" x="71" y="-483.9" font-family="Arial" font-size="14.00" fill="#000000">id </text>
<text text-anchor="start" x="85.7798" y="-483.9" font-family="Arial" font-size="14.00" fill="#666666">[bigint]</text>
<polygon fill="none" stroke="#000000" points="64,-442.5 64,-472.5 249,-472.5 249,-442.5 64,-442.5"/>
<text text-anchor="start" x="71" y="-453.9" font-family="Arial" font-size="14.00" fill="#000000">company_id </text>
<text text-anchor="start" x="150.3534" y="-453.9" font-family="Arial" font-size="14.00" fill="#666666">[bigint]</text>
<polygon fill="none" stroke="#000000" points="64,-412.5 64,-442.5 249,-442.5 249,-412.5 64,-412.5"/>
<text text-anchor="start" x="71" y="-423.9" font-family="Arial" font-size="14.00" fill="#000000">name </text>
<text text-anchor="start" x="109.899" y="-423.9" font-family="Arial" font-size="14.00" fill="#666666">[varchar(255)]</text>
<polygon fill="none" stroke="#000000" points="64,-382.5 64,-412.5 249,-412.5 249,-382.5 64,-382.5"/>
<text text-anchor="start" x="71" y="-393.9" font-family="Arial" font-size="14.00" fill="#000000">email </text>
<text text-anchor="start" x="108.3296" y="-393.9" font-family="Arial" font-size="14.00" fill="#666666">[varchar(255)]</text>
<polygon fill="none" stroke="#000000" points="64,-352.5 64,-382.5 249,-382.5 249,-352.5 64,-352.5"/>
<text text-anchor="start" x="71" y="-363.9" font-family="Arial" font-size="14.00" fill="#000000">password </text>
<text text-anchor="start" x="134.7882" y="-363.9" font-family="Arial" font-size="14.00" fill="#666666">[varchar(255)]</text>
<polygon fill="none" stroke="#000000" stroke-width="3" points="62,-351.5 62,-539.5 250,-539.5 250,-351.5 62,-351.5"/>
</g>
<!-- companies -->
<g id="node2" class="node">
<title>companies</title>
<polygon fill="#efefef" stroke="transparent" points="43,-192.5 43,-227.5 271,-227.5 271,-192.5 43,-192.5"/>
<polygon fill="none" stroke="#000000" points="43,-192.5 43,-227.5 271,-227.5 271,-192.5 43,-192.5"/>
<text text-anchor="start" x="49.7073" y="-205.3" font-family="Arial Bold" font-size="18.00" fill="#000000">companies</text>
<text text-anchor="start" x="136.7247" y="-205.3" font-family="Arial" font-size="14.00" fill="#000000">    </text>
<text text-anchor="start" x="170.9295" y="-205.3" font-family="Arial" font-size="14.00" fill="#666666">[BASE TABLE]</text>
<polygon fill="none" stroke="#000000" points="43,-162.5 43,-192.5 271,-192.5 271,-162.5 43,-162.5"/>
<text text-anchor="start" x="50" y="-173.9" font-family="Arial" font-size="14.00" fill="#000000">id    </text>
<text text-anchor="start" x="95.094" y="-173.9" font-family="Arial" font-size="14.00" fill="#666666">[bigint]</text>
<polygon fill="none" stroke="#000000" points="43,-132.5 43,-162.5 271,-162.5 271,-132.5 43,-132.5"/>
<text text-anchor="start" x="50" y="-143.9" font-family="Arial" font-size="14.00" fill="#000000">name    </text>
<text text-anchor="start" x="119.2132" y="-143.9" font-family="Arial" font-size="14.00" fill="#666666">[varchar(255)]</text>
<polygon fill="none" stroke="#000000" points="43,-102.5 43,-132.5 271,-132.5 271,-102.5 43,-102.5"/>
<text text-anchor="start" x="50" y="-113.9" font-family="Arial" font-size="14.00" fill="#000000">owner_name    </text>
<text text-anchor="start" x="165.1108" y="-113.9" font-family="Arial" font-size="14.00" fill="#666666">[varchar(255)]</text>
<polygon fill="none" stroke="#000000" points="43,-72.5 43,-102.5 271,-102.5 271,-72.5 43,-72.5"/>
<text text-anchor="start" x="50" y="-83.9" font-family="Arial" font-size="14.00" fill="#000000">phone    </text>
<text text-anchor="start" x="123.1178" y="-83.9" font-family="Arial" font-size="14.00" fill="#666666">[varchar(20)]</text>
<polygon fill="none" stroke="#000000" points="43,-42.5 43,-72.5 271,-72.5 271,-42.5 43,-42.5"/>
<text text-anchor="start" x="50" y="-53.9" font-family="Arial" font-size="14.00" fill="#000000">address    </text>
<text text-anchor="start" x="133.9958" y="-53.9" font-family="Arial" font-size="14.00" fill="#666666">[text]</text>
</g>
<!-- users&#45;&gt;companies -->
<g id="edge1" class="edge">
<title>users:company_id&#45;&gt;companies:id</title>
<path fill="none" stroke="#000000" d="M259.1715,-456.6332C313.2224,-446.7837 289.6809,-355.4067 249,-307 189.2031,-235.847 102.7969,-342.153 43,-271 16.2644,-239.1869 1.4444,-177.5 43,-177.5"/>
<polygon fill="#000000" stroke="#000000" points="258.9639,-456.6508 248.6179,-453.0163 253.9819,-457.0754 249,-457.5 249,-457.5 249,-457.5 253.9819,-457.0754 249.3821,-461.9837 258.9639,-456.6508 258.9639,-456.6508"/>
<text text-anchor="start" x="256.438" y="-467.5" font-family="Arial" font-size="10.00" fill="#000000">FOREIGN KEY (company_id) REFERENCES companies (id)</text>
</g>
</g>
</svg>
